<svg width="40" height="40" viewBox="0 0 40 40" fill="none" xmlns="http://www.w3.org/2000/svg">
<g clip-path="url(#clip0_523_6789)">
<path d="M34.8154 33.6163L25.8234 17.4307V2.34375H26.9952C27.6422 2.34375 28.1671 1.81915 28.1671 1.17188C28.1671 0.524597 27.6422 0 26.9952 0H12.9327C12.2855 0 11.7609 0.524597 11.7609 1.17188C11.7609 1.81915 12.2855 2.34375 12.9327 2.34375H14.1046V17.4341L5.22247 33.6377C3.65387 36.4996 5.72204 40 8.99048 40H31.0593C34.3338 40 36.4078 36.4828 34.8154 33.6163ZM31.059 37.6562H8.99048C7.50702 37.6562 6.56372 36.0669 7.27783 34.7644C17.0352 16.9638 16.4484 18.1647 16.4484 17.7344V2.34375H23.4796V4.84375H22.3077C21.6605 4.84375 21.1359 5.36835 21.1359 6.01562C21.1359 6.6629 21.6605 7.1875 22.3077 7.1875H23.4796V9.53125H19.964C19.3167 9.53125 18.7921 10.0558 18.7921 10.7031C18.7921 11.3504 19.3167 11.875 19.964 11.875H23.4796V14.2188H22.3077C21.6605 14.2188 21.1359 14.7433 21.1359 15.3906C21.1359 16.0379 21.6605 16.5625 22.3077 16.5625H23.4796V17.7344C23.4796 18.1699 22.8879 16.9733 32.7664 34.7546C33.4894 36.0556 32.5497 37.6562 31.059 37.6562Z" fill="#2E9BFF"/>
</g>
<defs>
<clipPath id="clip0_523_6789">
<rect width="40" height="40" fill="white"/>
</clipPath>
</defs>
</svg>
