<svg width="43" height="45" viewBox="0 0 43 45" fill="none" xmlns="http://www.w3.org/2000/svg">
<g clip-path="url(#clip0_601_11601)">
<path d="M42.3394 32.81C40.1115 30.5941 37.3596 28.9773 34.3394 28.11C39.2394 22.95 39.7494 15.65 39.7494 15.58C39.7618 15.4721 39.7493 15.3629 39.7129 15.2606C39.6765 15.1583 39.6171 15.0657 39.5394 14.99C39.4693 14.9217 39.3864 14.868 39.2954 14.8319C39.2044 14.7959 39.1072 14.7782 39.0094 14.78H38.9294C38.8094 14.78 38.4094 14.78 37.8494 14.91C33.872 15.4912 30.1243 17.1319 26.9994 19.66C27.2251 18.3148 27.3454 16.954 27.3594 15.59C27.265 11.9781 26.312 8.44057 24.5794 5.27C24.0126 4.20907 23.3814 3.18382 22.6894 2.2C22.6585 2.15484 22.6251 2.11144 22.5894 2.07L21.2694 0C21.1294 0.31 20.1194 1.83 20.1194 1.83C20.0294 1.94 19.9494 2.05 19.8494 2.19C19.1693 3.17723 18.5514 4.20589 17.9994 5.27C16.255 8.43693 15.2949 11.9757 15.1994 15.59C15.2119 16.9545 15.3356 18.3156 15.5694 19.66C12.4515 17.1408 8.71503 15.5039 4.74936 14.92C4.17936 14.83 3.74936 14.8 3.64936 14.79H3.53936C3.43978 14.7863 3.3405 14.803 3.24763 14.8391C3.15476 14.8752 3.07027 14.93 2.99936 15C2.92265 15.0769 2.86333 15.1694 2.82538 15.2711C2.78743 15.3729 2.77173 15.4816 2.77936 15.59C2.77936 15.66 3.30936 22.98 8.19936 28.12C5.17708 28.9825 2.42402 30.5999 0.199355 32.82C0.0783831 32.9585 0.0117188 33.1361 0.0117188 33.32C0.0117188 33.5039 0.0783831 33.6815 0.199355 33.82C1.19451 34.7856 2.2832 35.6498 3.44936 36.4C5.65312 37.8882 8.22324 38.7426 10.8794 38.87C10.2796 40.5131 9.98152 42.251 9.99936 44C10.0088 44.1915 10.0885 44.3728 10.2231 44.5093C10.3578 44.6458 10.538 44.7279 10.7294 44.74H10.7894C11.7988 44.7285 12.8043 44.6112 13.7894 44.39C15.6643 44.0241 17.4116 43.1763 18.8594 41.93L18.7494 44.17C18.7448 44.2735 18.762 44.3769 18.7999 44.4734C18.8378 44.5698 18.8955 44.6573 18.9694 44.73C19.0385 44.8036 19.1223 44.8621 19.2152 44.9017C19.3082 44.9412 19.4083 44.9611 19.5094 44.96H23.1094C23.2121 44.9625 23.3141 44.9433 23.4089 44.9037C23.5037 44.8641 23.589 44.8049 23.6594 44.73C23.7336 44.658 23.7909 44.5704 23.8272 44.4736C23.8635 44.3767 23.8779 44.2731 23.8694 44.17L23.7694 41.93C25.2171 43.1763 26.9644 44.0241 28.8394 44.39C29.8245 44.6106 30.8299 44.7279 31.8394 44.74C32.0324 44.7277 32.2139 44.6442 32.3488 44.5056C32.4837 44.367 32.5623 44.1833 32.5694 43.99C32.5527 42.281 32.2345 40.5884 31.6294 38.99C34.2855 38.8626 36.8556 38.0082 39.0594 36.52C40.2305 35.7731 41.3199 34.9049 42.3094 33.93C42.3889 33.8609 42.4532 33.776 42.4982 33.6808C42.5432 33.5855 42.5679 33.4819 42.5707 33.3766C42.5735 33.2713 42.5544 33.1665 42.5146 33.069C42.4747 32.9714 42.4151 32.8833 42.3394 32.81ZM31.4094 37.43L29.2794 37.27V37.36C30.2673 39.149 30.8542 41.1315 30.9994 43.17C29.6694 43.07 26.5094 42.62 24.4494 40.56C24.0662 40.1857 23.7304 39.7659 23.4494 39.31C23.3597 39.1687 23.2254 39.0614 23.0677 39.0052C22.9101 38.949 22.7382 38.9472 22.5794 39C22.4262 39.0453 22.2919 39.139 22.1964 39.2669C22.1008 39.3949 22.0493 39.5503 22.0494 39.71L22.2194 43.43H20.2194L20.3794 39.75C20.3817 39.5912 20.3322 39.436 20.2384 39.3078C20.1445 39.1797 20.0115 39.0857 19.8594 39.04C19.7005 38.9872 19.5286 38.989 19.371 39.0452C19.2133 39.1014 19.079 39.2087 18.9894 39.35C18.7083 39.8059 18.3725 40.2257 17.9894 40.6C15.9294 42.66 12.7694 43.11 11.4394 43.21C11.5858 41.1717 12.1726 39.1895 13.1594 37.4V37.31L11.0294 37.47C6.84936 37.47 3.16936 34.64 1.73936 33.38C3.99473 31.3185 6.78415 29.9325 9.78936 29.38C9.96074 29.4073 10.1363 29.3743 10.286 29.2866C10.4358 29.199 10.5506 29.0621 10.6107 28.8993C10.6709 28.7365 10.6727 28.5579 10.6159 28.3939C10.5592 28.23 10.4473 28.0907 10.2994 28C10.0594 27.79 9.81936 27.56 9.56936 27.31C5.91935 23.66 4.75936 18.51 4.41936 16.39C4.71936 16.39 5.09936 16.5 5.57936 16.6C10.0042 17.7499 14.1084 19.8944 17.5794 22.87L17.6794 22.96L17.5994 22.15C17.6297 22.0489 17.6297 21.9411 17.5994 21.84C17.0385 19.8029 16.7394 17.7027 16.7094 15.59C16.7094 9.75 19.9194 4.72 21.2994 2.83C22.6894 4.73 25.8994 9.76 25.8994 15.59C25.8612 17.706 25.5589 19.809 24.9994 21.85C24.9744 21.9518 24.9744 22.0582 24.9994 22.16L24.9294 22.97L25.0294 22.88C28.5015 19.9061 32.6052 17.7619 37.0294 16.61C37.5194 16.51 37.8994 16.44 38.1894 16.4C37.8594 18.52 36.6894 23.68 33.0494 27.32C32.7994 27.57 32.5594 27.79 32.3194 28.01C32.2101 28.1051 32.1307 28.2298 32.0908 28.3691C32.0509 28.5084 32.0522 28.6562 32.0945 28.7947C32.1368 28.9333 32.2183 29.0566 32.3292 29.1498C32.4401 29.243 32.5756 29.3022 32.7194 29.32C35.7246 29.8725 38.514 31.2585 40.7694 33.32C39.2694 34.6 35.5894 37.43 31.4094 37.43Z" fill="#A2D16A"/>
<path d="M23.06 31.5202L32.75 21.8302C32.8565 21.7038 32.9117 21.542 32.9047 21.3768C32.8977 21.2117 32.8289 21.0551 32.712 20.9382C32.5951 20.8213 32.4386 20.7526 32.2734 20.7455C32.1082 20.7385 31.9464 20.7937 31.82 20.9002L22.13 30.5902V10.6902C22.1102 10.5305 22.0327 10.3834 21.9121 10.2768C21.7914 10.1702 21.636 10.1113 21.475 10.1113C21.314 10.1113 21.1585 10.1702 21.0379 10.2768C20.9173 10.3834 20.8398 10.5305 20.82 10.6902V30.6102L11.11 20.9002C10.9836 20.7937 10.8218 20.7385 10.6566 20.7455C10.4914 20.7526 10.3349 20.8213 10.218 20.9382C10.1011 21.0551 10.0323 21.2117 10.0253 21.3768C10.0182 21.542 10.0735 21.7038 10.18 21.8302L19.87 31.5202H9.61999C9.52718 31.5088 9.43299 31.5171 9.34366 31.5448C9.25433 31.5724 9.17189 31.6188 9.10182 31.6807C9.03175 31.7426 8.97564 31.8188 8.93721 31.904C8.89878 31.9893 8.87891 32.0817 8.87891 32.1752C8.87891 32.2688 8.89878 32.3612 8.93721 32.4465C8.97564 32.5317 9.03175 32.6078 9.10182 32.6698C9.17189 32.7317 9.25433 32.778 9.34366 32.8057C9.43299 32.8334 9.52718 32.8417 9.61999 32.8302H19.89L16.94 35.8302C16.8783 35.8899 16.8292 35.9614 16.7957 36.0404C16.7622 36.1194 16.745 36.2044 16.745 36.2902C16.745 36.3761 16.7622 36.461 16.7957 36.5401C16.8292 36.6191 16.8783 36.6906 16.94 36.7502C16.9989 36.8133 17.0701 36.8636 17.1492 36.898C17.2284 36.9324 17.3137 36.9502 17.4 36.9502C17.4861 36.949 17.5711 36.9307 17.6501 36.8964C17.729 36.8621 17.8004 36.8124 17.86 36.7502L20.86 33.7502V35.5102C20.8798 35.67 20.9573 35.8171 21.0779 35.9237C21.1985 36.0303 21.354 36.0892 21.515 36.0892C21.676 36.0892 21.8314 36.0303 21.9521 35.9237C22.0727 35.8171 22.1502 35.67 22.17 35.5102V33.7802L25 36.6402C25.1238 36.7594 25.2882 36.8273 25.46 36.8302C25.6322 36.8294 25.7973 36.7612 25.92 36.6402C25.982 36.5797 26.0312 36.5074 26.0649 36.4275C26.0985 36.3477 26.1158 36.2619 26.1158 36.1752C26.1158 36.0886 26.0985 36.0028 26.0649 35.923C26.0312 35.8431 25.982 35.7708 25.92 35.7102L23 32.8302H32.2C32.3598 32.8105 32.5068 32.733 32.6134 32.6123C32.7201 32.4917 32.7789 32.3362 32.7789 32.1752C32.7789 32.0142 32.7201 31.8588 32.6134 31.7382C32.5068 31.6175 32.3598 31.54 32.2 31.5202H23.06Z" fill="#A2D16A"/>
</g>
<defs>
<clipPath id="clip0_601_11601">
<rect width="42.55" height="44.94" fill="white"/>
</clipPath>
</defs>
</svg>
