<svg width="36" height="47" viewBox="0 0 36 47" fill="none" xmlns="http://www.w3.org/2000/svg">
<rect x="0.855469" y="8.93506" width="27.6114" height="37.3151" rx="3.25" fill="white" stroke="#20CEA0" stroke-width="1.5"/>
<path fill-rule="evenodd" clip-rule="evenodd" d="M7.38434 40.9352C6.88191 40.9352 6.47461 40.5279 6.47461 40.0255V32.1412C6.47461 31.6387 6.88191 31.2314 7.38434 31.2314V31.2314C7.88677 31.2314 8.29407 31.6387 8.29407 32.1412V40.0255C8.29407 40.5279 7.88677 40.9352 7.38434 40.9352V40.9352Z" fill="#20CEA0"/>
<path fill-rule="evenodd" clip-rule="evenodd" d="M12.2359 40.9351C11.7335 40.9351 11.3262 40.5278 11.3262 40.0253L11.3262 27.2891C11.3262 26.7867 11.7335 26.3794 12.2359 26.3794V26.3794C12.7383 26.3794 13.1456 26.7867 13.1456 27.2891L13.1456 40.0253C13.1456 40.5278 12.7383 40.9351 12.2359 40.9351V40.9351Z" fill="#20CEA0"/>
<path fill-rule="evenodd" clip-rule="evenodd" d="M17.0875 40.9354C16.585 40.9354 16.1777 40.5281 16.1777 40.0257L16.1777 29.7154C16.1777 29.213 16.585 28.8057 17.0875 28.8057V28.8057C17.5899 28.8057 17.9972 29.213 17.9972 29.7154L17.9972 40.0257C17.9972 40.5281 17.5899 40.9354 17.0875 40.9354V40.9354Z" fill="#20CEA0"/>
<path fill-rule="evenodd" clip-rule="evenodd" d="M21.941 40.9352C21.4386 40.9352 21.0313 40.5279 21.0313 40.0255L21.0313 24.8633C21.0313 24.3609 21.4385 23.9536 21.941 23.9536V23.9536C22.4434 23.9536 22.8507 24.3609 22.8507 24.8633L22.8507 40.0255C22.8507 40.5279 22.4434 40.9352 21.941 40.9352V40.9352Z" fill="#20CEA0"/>
<path d="M31.5898 10.3618C31.5898 14.6312 28.1288 18.0923 23.8594 18.0923C19.59 18.0923 16.1289 14.6312 16.1289 10.3618C16.1289 6.0924 19.59 2.63135 23.8594 2.63135C28.1288 2.63135 31.5898 6.0924 31.5898 10.3618Z" fill="white"/>
<path d="M17.5148 10.2994C17.5148 6.83524 20.323 4.02698 23.7872 4.02698C27.2514 4.02698 30.0596 6.83524 30.0596 10.2994C30.0596 13.7636 27.2514 16.5718 23.7872 16.5718C20.323 16.5718 17.5148 13.7636 17.5148 10.2994ZM23.7872 1.20752C18.7659 1.20752 14.6953 5.2781 14.6953 10.2994C14.6953 15.3207 18.7659 19.3913 23.7872 19.3913C28.8085 19.3913 32.8791 15.3207 32.8791 10.2994C32.8791 5.2781 28.8085 1.20752 23.7872 1.20752Z" fill="#20CEA0" stroke="white" stroke-linecap="round" stroke-linejoin="round"/>
<path d="M32.889 16.8836C32.3384 16.3331 31.4459 16.3331 30.8953 16.8836C30.3448 17.4341 30.3448 18.3267 30.8953 18.8773L32.5126 20.4946C33.0632 21.0451 33.9557 21.0451 34.5063 20.4946C35.0568 19.944 35.0568 19.0514 34.5063 18.5009L32.889 16.8836Z" fill="#20CEA0" stroke="white" stroke-linecap="round" stroke-linejoin="round"/>
</svg>
