<svg width="46" height="46" viewBox="0 0 46 46" fill="none" xmlns="http://www.w3.org/2000/svg">
<path d="M23.0002 34.5351C16.6398 34.5351 11.4648 29.3601 11.4648 22.9997C11.4648 19.9402 12.6802 17.006 14.8436 14.8426C17.007 12.6792 19.9412 11.4639 23.0007 11.4639C26.0602 11.4639 28.9943 12.6792 31.1577 14.8426C33.3211 17.006 34.5365 19.9402 34.5365 22.9997C34.5361 29.3605 29.3611 34.5351 23.0002 34.5351ZM23.0002 13.2335C21.0687 13.2336 19.1805 13.8065 17.5746 14.8796C15.9686 15.9528 14.7169 17.4781 13.9778 19.2627C13.2387 21.0472 13.0453 23.0108 13.4222 24.9052C13.7991 26.7997 14.7293 28.5398 16.0951 29.9056C17.461 31.2713 19.2011 32.2014 21.0956 32.5782C22.99 32.955 24.9536 32.7616 26.7381 32.0224C28.5226 31.2832 30.0479 30.0315 31.121 28.4254C32.1941 26.8194 32.7668 24.9312 32.7668 22.9997C32.7638 20.4104 31.7338 17.928 29.9029 16.0972C28.0719 14.2663 25.5895 13.2365 23.0002 13.2335Z" fill="#F7931A"/>
<path d="M22.9998 9.50694C22.7652 9.50694 22.5402 9.41373 22.3743 9.24784C22.2084 9.08194 22.1152 8.85693 22.1152 8.62232V3.71518C22.1152 3.48057 22.2084 3.25556 22.3743 3.08966C22.5402 2.92377 22.7652 2.83057 22.9998 2.83057C23.2345 2.83057 23.4595 2.92377 23.6254 3.08966C23.7913 3.25556 23.8845 3.48057 23.8845 3.71518V8.62232C23.8845 8.85693 23.7913 9.08194 23.6254 9.24784C23.4595 9.41373 23.2345 9.50694 22.9998 9.50694Z" fill="#F7931A"/>
<path d="M22.9998 43.169C22.7652 43.169 22.5402 43.0758 22.3743 42.9099C22.2084 42.744 22.1152 42.519 22.1152 42.2844V37.3773C22.1152 37.1427 22.2084 36.9177 22.3743 36.7518C22.5402 36.5859 22.7652 36.4927 22.9998 36.4927C23.2345 36.4927 23.4595 36.5859 23.6254 36.7518C23.7913 36.9177 23.8845 37.1427 23.8845 37.3773V42.2844C23.8845 42.519 23.7913 42.744 23.6254 42.9099C23.4595 43.0758 23.2345 43.169 22.9998 43.169Z" fill="#F7931A"/>
<path d="M42.2839 23.8845H37.3768C37.1422 23.8845 36.9172 23.7913 36.7513 23.6254C36.5854 23.4595 36.4922 23.2345 36.4922 22.9998C36.4922 22.7652 36.5854 22.5402 36.7513 22.3743C36.9172 22.2084 37.1422 22.1152 37.3768 22.1152H42.2839C42.5186 22.1152 42.7436 22.2084 42.9095 22.3743C43.0754 22.5402 43.1686 22.7652 43.1686 22.9998C43.1686 23.2345 43.0754 23.4595 42.9095 23.6254C42.7436 23.7913 42.5186 23.8845 42.2839 23.8845Z" fill="#F7931A"/>
<path d="M8.62183 23.8845H3.71469C3.48008 23.8845 3.25507 23.7913 3.08918 23.6254C2.92328 23.4595 2.83008 23.2345 2.83008 22.9998C2.83008 22.7652 2.92328 22.5402 3.08918 22.3743C3.25507 22.2084 3.48008 22.1152 3.71469 22.1152H8.62183C8.85645 22.1152 9.08145 22.2084 9.24735 22.3743C9.41325 22.5402 9.50645 22.7652 9.50645 22.9998C9.50645 23.2345 9.41325 23.4595 9.24735 23.6254C9.08145 23.7913 8.85645 23.8845 8.62183 23.8845Z" fill="#F7931A"/>
<path d="M33.1662 13.718C32.9912 13.7181 32.8201 13.6662 32.6745 13.569C32.529 13.4718 32.4155 13.3336 32.3486 13.1719C32.2816 13.0101 32.2641 12.8322 32.2983 12.6605C32.3325 12.4889 32.4169 12.3312 32.5407 12.2075L36.0105 8.73763C36.1764 8.57172 36.4014 8.47852 36.6361 8.47852C36.8707 8.47852 37.0957 8.57172 37.2616 8.73763C37.4275 8.90354 37.5207 9.12856 37.5207 9.36319C37.5207 9.59781 37.4275 9.82283 37.2616 9.98874L33.7921 13.4589C33.71 13.5412 33.6124 13.6065 33.505 13.651C33.3976 13.6954 33.2825 13.7182 33.1662 13.718Z" fill="#F7931A"/>
<path d="M9.36321 37.5208C9.18824 37.5209 9.0172 37.469 8.87171 37.3718C8.72623 37.2746 8.61283 37.1364 8.54587 36.9748C8.47891 36.8132 8.46138 36.6353 8.49551 36.4637C8.52964 36.2921 8.61389 36.1344 8.73761 36.0107L12.2072 32.5409C12.2893 32.4587 12.3869 32.3936 12.4942 32.3491C12.6016 32.3046 12.7166 32.2817 12.8328 32.2817C12.949 32.2817 13.0641 32.3046 13.1715 32.3491C13.2788 32.3936 13.3764 32.4587 13.4585 32.5409C13.5407 32.6231 13.6059 32.7206 13.6503 32.828C13.6948 32.9353 13.7177 33.0504 13.7177 33.1666C13.7177 33.2828 13.6948 33.3979 13.6503 33.5052C13.6059 33.6126 13.5407 33.7101 13.4585 33.7923L9.98872 37.2622C9.90662 37.3444 9.80911 37.4095 9.70176 37.4539C9.59442 37.4983 9.47937 37.521 9.36321 37.5208Z" fill="#F7931A"/>
<path d="M36.6357 37.5208C36.5196 37.521 36.4045 37.4982 36.2971 37.4537C36.1898 37.4093 36.0923 37.3441 36.0102 37.2618L32.5404 33.7923C32.4583 33.7101 32.3931 33.6126 32.3486 33.5052C32.3041 33.3979 32.2813 33.2828 32.2812 33.1666C32.2813 33.0504 32.3041 32.9353 32.3486 32.828C32.3931 32.7206 32.4583 32.6231 32.5404 32.5409C32.6226 32.4587 32.7201 32.3936 32.8275 32.3491C32.9348 32.3046 33.0499 32.2817 33.1661 32.2817C33.2823 32.2817 33.3974 32.3046 33.5047 32.3491C33.6121 32.3936 33.7096 32.4587 33.7918 32.5409L37.2617 36.0107C37.3854 36.1344 37.4697 36.2921 37.5038 36.4637C37.5379 36.6353 37.5204 36.8132 37.4534 36.9748C37.3865 37.1364 37.2731 37.2746 37.1276 37.3718C36.9821 37.469 36.8111 37.5209 36.6361 37.5208H36.6357Z" fill="#F7931A"/>
<path d="M12.833 13.7181C12.7168 13.7183 12.6017 13.6956 12.4942 13.6511C12.3868 13.6066 12.2893 13.5414 12.2072 13.459L8.73763 9.98923C8.57172 9.82332 8.47852 9.5983 8.47852 9.36367C8.47852 9.12904 8.57172 8.90402 8.73763 8.73812C8.90354 8.57221 9.12856 8.479 9.36319 8.479C9.59781 8.479 9.82283 8.57221 9.98874 8.73812L13.4586 12.2077C13.5823 12.3314 13.6665 12.489 13.7007 12.6606C13.7348 12.8322 13.7173 13.0101 13.6503 13.1717C13.5834 13.3333 13.47 13.4715 13.3245 13.5687C13.179 13.6659 13.008 13.7178 12.833 13.7178V13.7181Z" fill="#F7931A"/>
<path d="M17.5616 10.5753C17.3858 10.5754 17.214 10.5231 17.0681 10.4251C16.9222 10.3271 16.8088 10.1878 16.7423 10.0251L15.8135 7.75084C15.7266 7.53401 15.729 7.29161 15.8201 7.07653C15.9113 6.86146 16.0838 6.69117 16.3 6.60282C16.5163 6.51447 16.7587 6.51524 16.9744 6.60496C17.1901 6.69468 17.3615 6.86606 17.4513 7.08171L18.3801 9.35597C18.435 9.49029 18.4561 9.63606 18.4413 9.78042C18.4266 9.92479 18.3766 10.0633 18.2957 10.1838C18.2149 10.3043 18.1056 10.403 17.9775 10.4713C17.8495 10.5396 17.7067 10.5753 17.5616 10.5753Z" fill="#F7931A"/>
<path d="M28.566 10.6283C28.4201 10.6283 28.2766 10.5922 28.1481 10.5232C28.0196 10.4543 27.9101 10.3546 27.8294 10.2332C27.7487 10.1117 27.6993 9.97215 27.6856 9.82696C27.6718 9.68177 27.6942 9.53544 27.7507 9.40099L28.7021 7.13514C28.7929 6.91878 28.9659 6.74735 29.1831 6.65856C29.2907 6.6146 29.4058 6.59224 29.522 6.59278C29.6382 6.59332 29.7531 6.61674 29.8603 6.66169C29.9674 6.70665 30.0646 6.77227 30.1464 6.8548C30.2282 6.93734 30.2929 7.03517 30.3368 7.14271C30.3808 7.25025 30.4032 7.3654 30.4026 7.48158C30.4021 7.59776 30.3787 7.7127 30.3337 7.81983L29.3823 10.0857C29.3149 10.2465 29.2014 10.3839 29.0562 10.4804C28.9109 10.5769 28.7404 10.6284 28.566 10.6283Z" fill="#F7931A"/>
<path d="M36.3093 18.4467C36.1042 18.4469 35.9053 18.3757 35.7468 18.2455C35.5883 18.1152 35.48 17.9339 35.4404 17.7326C35.4009 17.5313 35.4325 17.3225 35.5299 17.142C35.6274 16.9614 35.7845 16.8203 35.9745 16.7429L38.2487 15.814C38.3564 15.7692 38.472 15.7461 38.5886 15.7461C38.7053 15.7461 38.8208 15.7691 38.9285 15.8139C39.0362 15.8588 39.134 15.9244 39.2163 16.0072C39.2985 16.0899 39.3635 16.1881 39.4077 16.2961C39.4518 16.4041 39.4741 16.5198 39.4733 16.6365C39.4726 16.7531 39.4488 16.8685 39.4032 16.9759C39.3577 17.0833 39.2914 17.1807 39.2081 17.2623C39.1248 17.344 39.0262 17.4084 38.9179 17.4518L36.6436 18.3807C36.5375 18.4242 36.424 18.4466 36.3093 18.4467Z" fill="#F7931A"/>
<path d="M38.5218 30.4019C38.4043 30.4019 38.288 30.3783 38.1797 30.3327L35.9139 29.3813C35.8061 29.3368 35.7082 29.2714 35.6259 29.1889C35.5435 29.1064 35.4782 29.0085 35.4338 28.9007C35.3894 28.7929 35.3668 28.6773 35.3672 28.5608C35.3676 28.4442 35.391 28.3288 35.4362 28.2213C35.4813 28.1138 35.5473 28.0163 35.6302 27.9344C35.7131 27.8525 35.8115 27.7878 35.9195 27.744C36.0276 27.7002 36.1432 27.6782 36.2598 27.6792C36.3764 27.6803 36.4916 27.7044 36.5988 27.7501L38.8647 28.7015C39.0532 28.7805 39.2085 28.9224 39.3042 29.103C39.3999 29.2836 39.4301 29.4918 39.3897 29.6922C39.3493 29.8925 39.2408 30.0727 39.0826 30.2021C38.9243 30.3315 38.7262 30.4021 38.5218 30.4019Z" fill="#F7931A"/>
<path d="M29.3665 39.4686C29.1907 39.4686 29.0189 39.4163 28.873 39.3183C28.7271 39.2203 28.6137 39.081 28.5473 38.9183L27.6184 36.644C27.5297 36.4268 27.5309 36.1833 27.6217 35.9669C27.7126 35.7506 27.8856 35.5792 28.1028 35.4905C28.32 35.4018 28.5636 35.403 28.7799 35.4938C28.9962 35.5846 29.1676 35.7577 29.2563 35.9749L30.1852 38.2491C30.2399 38.3835 30.2608 38.5292 30.2461 38.6735C30.2313 38.8178 30.1813 38.9563 30.1004 39.0767C30.0196 39.1972 29.9104 39.2959 29.7824 39.3642C29.6545 39.4325 29.5117 39.4684 29.3666 39.4686H29.3665Z" fill="#F7931A"/>
<path d="M16.4821 39.4068C16.3363 39.4067 16.1928 39.3707 16.0643 39.3018C15.9357 39.2329 15.8262 39.1332 15.7455 39.0118C15.6648 38.8904 15.6154 38.7508 15.6016 38.6057C15.5878 38.4605 15.6102 38.3142 15.6666 38.1797L16.618 35.9139C16.6626 35.8061 16.728 35.7082 16.8105 35.6259C16.8929 35.5435 16.9909 35.4782 17.0987 35.4338C17.2065 35.3894 17.322 35.3668 17.4386 35.3672C17.5552 35.3676 17.6705 35.391 17.778 35.4362C17.8855 35.4813 17.983 35.5472 18.065 35.6302C18.1469 35.7131 18.2116 35.8115 18.2554 35.9195C18.2992 36.0276 18.3212 36.1432 18.3201 36.2598C18.3191 36.3764 18.295 36.4916 18.2493 36.5988L17.2982 38.8644C17.2308 39.0252 17.1173 39.1624 16.9721 39.2589C16.8269 39.3554 16.6565 39.4068 16.4821 39.4068Z" fill="#F7931A"/>
<path d="M7.41673 30.2515C7.21157 30.2517 7.01272 30.1806 6.85422 30.0504C6.69572 29.9201 6.58742 29.7388 6.54785 29.5375C6.50829 29.3362 6.53993 29.1274 6.63736 28.9469C6.73478 28.7663 6.89193 28.6252 7.0819 28.5478L9.35616 27.6189C9.46371 27.575 9.57885 27.5527 9.69502 27.5532C9.81119 27.5538 9.92611 27.5772 10.0332 27.6222C10.1403 27.6672 10.2375 27.7328 10.3193 27.8154C10.401 27.8979 10.4657 27.9958 10.5097 28.1033C10.5536 28.2108 10.5759 28.326 10.5753 28.4422C10.5748 28.5583 10.5513 28.6732 10.5064 28.7804C10.4614 28.8875 10.3958 28.9847 10.3132 29.0664C10.2307 29.1482 10.1328 29.2129 10.0253 29.2568L7.75103 30.1856C7.64494 30.2291 7.53139 30.2515 7.41673 30.2515Z" fill="#F7931A"/>
<path d="M9.7421 18.3188C9.62459 18.3188 9.50828 18.2952 9.40002 18.2496L7.13416 17.2982C7.02703 17.2532 6.92981 17.1876 6.84803 17.1051C6.76626 17.0225 6.70155 16.9247 6.65758 16.8171C6.61362 16.7096 6.59127 16.5945 6.59181 16.4783C6.59234 16.3621 6.61576 16.2472 6.66072 16.14C6.70568 16.0329 6.77129 15.9357 6.85383 15.8539C6.93636 15.7721 7.03419 15.7074 7.14173 15.6634C7.24928 15.6195 7.36443 15.5971 7.48061 15.5977C7.59679 15.5982 7.71173 15.6216 7.81886 15.6666L10.0847 16.618C10.2733 16.697 10.4286 16.8389 10.5244 17.0195C10.6202 17.2001 10.6504 17.4083 10.61 17.6087C10.5696 17.8091 10.461 17.9893 10.3027 18.1187C10.1445 18.2481 9.94627 18.3187 9.74183 18.3185L9.7421 18.3188Z" fill="#F7931A"/>
</svg>
